<svg id="Layer_1" data-name="Layer 1" xmlns="http://www.w3.org/2000/svg" viewBox="0 0 285.19 67.53"><path d="M158.09,48.68l-.15.15C158,48.78,158.05,48.73,158.09,48.68Z" style="fill:#003976"></path><path d="M146.65,36.33h0Z" style="fill:#003976"></path><path d="M144.3,27a33.69,33.69,0,0,0-4.42,2.32c.19-.08,2.19-1.19,3.06-1.61s1.61-.75,2.45-1.06c0,0,.16-.06.13-.06a1.37,1.37,0,0,0-.51.14Z" style="fill:#003976"></path><path d="M132.87,39.31a1.29,1.29,0,0,0-.17.16l.17-.15S132.88,39.31,132.87,39.31Z" style="fill:#003976"></path><path d="M169.9,35.9a.13.13,0,0,0,0-.06,2,2,0,0,0,0-.24c0-.14,0-.28-.07-.42a8.6,8.6,0,0,0-1-3,9.42,9.42,0,0,0-.62-1.11l-.49-.69A12.5,12.5,0,0,0,163.72,27a18.1,18.1,0,0,0-6.64-2.1,24,24,0,0,0-7.26.45c-.36.06-.71.14-1.06.23l-.77.19c-.49.14-1,.28-1.47.45l-.46.16c-.07,0,0,0,.1,0,.62-.2,1.25-.37,1.89-.54q.6-.16,1.23-.3a25.26,25.26,0,0,1,2.65-.46c.08,0-1.61.26-2.86.57a1.48,1.48,0,0,0,.38,0l.16,0,.17,0h.13s.05,0,.05,0,0,0-.05,0h0l-.26.07-.14,0-1.32.34-1.41.43a17.61,17.61,0,0,1-1.84.73c-1,.39-1.87.81-2.77,1.27s-1.88,1-2.78,1.57l-.08.05a39.46,39.46,0,0,0-4.42,3.14h0c-.31.26-.64.5-.94.77A53.89,53.89,0,0,0,126,42.54c-.34.47-.68.94-1,1.41-.23.31-.44.63-.66.95l.13-.44.27-.91c.18-.61.37-1.21.56-1.82.32-1,.64-2,1-2.94.54-1.52,3-7.71,3.75-9.26-.09.19-.22.45-.28.56l0,.08-.38.78c-.66,1.41-1.28,2.86-1.88,4.31-.34.81-.66,1.62-1,2.44l-.4,1-.2.45-.07.15s0,.09-.06.1h0c0-.12,0-.25.09-.37l.15-.43c.17-.46.34-.92.52-1.37l0-.08.67-1.66.64-1.59c.72-1.72,1.47-3.41,2.27-5.07-.07-.2.11-.41.2-.6s.28-.63.42-.94c.44-.92.92-1.82,1.4-2.72.66-1.22,1.34-2.42,2-3.63.06-.1,2.16-3.72,3.13-5.25.65-1,1.29-2,2-2.95l.29-.46.13-.2,0-.05,0,0,0,0,0,0c.05-.09.06-.06,0-.07s-.08.1-.13.15l-.26.37-.69,1-1.07,1.62a9,9,0,0,0-.83,1.25c0,.07-.12.13-.17.2l.54-.86c.22-.36.45-.7.68-1s.49-.74.74-1.11.67-1,1-1.45l2.1-3c.79-1.15,1.58-2.28,2.38-3.4.28-.39,1.19-1.66,1.25-1.77l-.52.61-.63.79a.56.56,0,0,0-.05.08l-.26.3s0,0-.06,0,0,0,0,0l.14-.21.21-.31c.26-.36.44-.64.77-1.09,0,0,0,0-.06.05a2.71,2.71,0,0,0-.26.29l-.28.33q-.54.62-1.05,1.26c-1.07,1.31-2.12,2.63-3.14,4-1.16,1.55-2.28,3.15-3.37,4.78l-.22.33q-2.85,4.29-5.44,8.82c-.75,1.34-1.47,2.69-2.19,4.06l-.74,1.42s0,0,0,.05c.07-.15.14-.29.2-.43.76-1.56,1.88-3.67,2.61-5.21h0c-1,1.74-1.9,3.5-2.8,5.29-.21.43-.41.87-.62,1.31l-.28.6q-.57,1.18-1.11,2.4c-.24.53-.46,1.07-.69,1.6l0,.06,0,.07c-.81,1.86-1.59,3.73-2.3,5.65,0,.09,0-.06,0-.23.17-.5.35-1,.53-1.52l0,0c.34-.94.7-1.87,1.07-2.8s.66-1.66,1-2.48l.09-.3c-.12.27-.26.54-.38.81,0,.08-.06.19-.12.21s0-.08,0-.12l.06-.2c.4-.93.79-1.86,1.19-2.78q1-2.09,2-4.13,1-1.87,2-3.72c.5-.92,1-1.84,1.51-2.77s1.24-2.13,1.86-3.18a.28.28,0,0,1,0-.09l.14-.25-.15.24-.62,1c-.57.92-1.12,1.84-1.67,2.78-.43.71-.85,1.43-1.26,2.15a109.9,109.9,0,0,0-7.23,15.29c-.21.54-.4,1.1-.59,1.65q-1.29,3.6-2.23,7.37a.7.7,0,0,1,0,.14c-.35,1.43-.68,2.88-1,4.34s-.46,2.74-.61,4.11c0,.08-.08.62-.15,1.11,0,0-.1.75-.1.79l0,0c0-.07.16-.27.27-.45s.3-.58.46-.87l.91-1.67c.68-1.2,1.92-3.16,2-3.21l.2-.32c.4-.72.83-1.41,1.26-2.11.67-1.06,2.24-3.2,2.28-3.25l.14-.21c.57-.77,1.14-1.53,1.74-2.29.44-.54.88-1.09,1.36-1.61.16-.17,2.62-2.66,3.56-3.55l.86-.79.9-.83.12-.1.69-.6.27-.22c.07,0,.13-.15.23-.14s0,0,0,0l0,.07-.08.08-.23.22c-.18.16-.37.35-.55.52l-1.34,1.22c-.8.76-1.58,1.52-2.32,2.3l-.4.46,0,0c-.05.07-.19.22-.28.32.24-.18,1.32-1.21,2.19-2,1.2-1.1,2-1.95,2.91-2.68l1.13-.9c.55-.41,1.11-.82,1.68-1.22l.55-.38a35.18,35.18,0,0,1,5.38-3.16h0l.26-.11.06,0,.05,0a.11.11,0,0,1,.08,0s0,0-.05,0a.41.41,0,0,1-.11.07l-.26.15-.74.42-1.71,1a6.19,6.19,0,0,0-1.21.76c.14-.07.27-.16.41-.24l.15-.08.11-.06s0,0,0,0,0,0,0,0a.44.44,0,0,1-.1.08l-.12.09-.15.1-.77.52,0,0-.24.16a45.65,45.65,0,0,0-5.9,4.71l-.1.08a.23.23,0,0,1-.07.07c-.34.32-.68.64-1,1l-.06,0c0,.06-.1.11-.15.17s-.23.24-.34.37l-.83.91c-.42.42-.81.85-1.2,1.29s-.9,1-1.33,1.52l-.37.45a5.83,5.83,0,0,0-.61.8c-.4.5-.78,1-1.16,1.52s-.69,1-1,1.46c-.12.18-.24.36-.35.54a.22.22,0,0,0,0,.08.43.43,0,0,0,0,.07s.06,0,.11-.12.21-.29.31-.43q.67-1,1.41-2l1.5-1.91.57-.68c.86-.76,1.5-1.66,2.27-2.48a56.44,56.44,0,0,1,7.22-6.32c1-.71,2-1.39,3-2l.1-.07a32.79,32.79,0,0,1,5.68-2.75c.8-.28,1.62-.54,2.46-.76l1.61-.35a20.48,20.48,0,0,1,3.18-.37l.2,0h0a13.32,13.32,0,0,1,6.5,1.52,7.52,7.52,0,0,1,1.75,1.38l0,.05a1.13,1.13,0,0,0,.2.26l.05.06a8.18,8.18,0,0,1,1.71,3.86,10.8,10.8,0,0,1-.37,4.64,19.63,19.63,0,0,1-4.46,7.37c-.29.31-.59.62-.89.92l-.07.07-.93.9-.19.17c-.63.58-1.28,1.14-2,1.69-.94.62-1.8,1.33-2.77,1.93l-.08,0h0l0,0,0,0,.2-.15a33.42,33.42,0,0,0,3-2.31,44.51,44.51,0,0,0,3.41-3.31,20.68,20.68,0,0,0,4.15-6.5l.12-.34a.56.56,0,0,0,0-.12q.11-.3.18-.6h0c.06-.22.12-.45.17-.68a.13.13,0,0,1,0-.06c0-.2.07-.4.1-.59s0-.23,0-.35,0-.15,0-.22a.17.17,0,0,1,0-.07c0-.13,0-.26,0-.39v-.13c0-.12,0-.24,0-.36a9.21,9.21,0,0,0-.79-3.63,7.41,7.41,0,0,0-1.18-1.83l-.28-.25a5.75,5.75,0,0,1,.56.74,8.47,8.47,0,0,0-2.13-1.83A9.66,9.66,0,0,0,157.93,29a19.62,19.62,0,0,1,3.06,1.1l0,0h0s-.13,0-.19-.06l-.39-.17c-.35-.15-.7-.28-1.05-.4a12.29,12.29,0,0,0-3.16-.57h-.05l-.06,0c.94,0,5.17.77,7.26,3.58a7.3,7.3,0,0,1,.38.65,5,5,0,0,0-.72-1.35,7.83,7.83,0,0,1,1.35,2.75,8.94,8.94,0,0,1-.12,5.18c-.14.48-.6,1.63-.6,1.63a21.19,21.19,0,0,1-3.48,5.4l-.09.16-.17.18c-.33.35-.66.69-1,1l0,.09-.44.43c-.27.25-.55.48-.83.72-.79.64-1.58,1.29-2.39,1.91a35.87,35.87,0,0,1-8.77,5h0l-1,.37-1.12.37-.82.25-.58.17a27.9,27.9,0,0,1-3.57.75,17.68,17.68,0,0,1-5.19,0,6.19,6.19,0,0,1-1.1-.3c-.21-.08-.41-.16-.6-.25l-.11-.06a3.47,3.47,0,0,1-.45-.26,5.1,5.1,0,0,1-.6-.51,3.24,3.24,0,0,1-1-2.25,5.94,5.94,0,0,1,.31-1.73,3.8,3.8,0,0,1,.35-.92,18.66,18.66,0,0,1,.93-1.84,1.18,1.18,0,0,1-.21.49c-.14.31-.29.61-.42.92a8,8,0,0,0-.85,3.1,3.24,3.24,0,0,0,1,2.18A5.67,5.67,0,0,0,134.11,58c.37.05.73.1,1.1.12a19.15,19.15,0,0,0,4.56-.24h0c.39-.06.77-.12,1.15-.2l.32-.08.49-.11.42-.1.27-.07c.71-.18,1.4-.38,2.08-.6l.17,0,.36-.13.14-.06.93-.34c1-.37,1.88-.76,2.79-1.19l.45-.24.49-.24a6.22,6.22,0,0,1,.64-.29,1.84,1.84,0,0,1-.16.1l-.1.07-.14.09h0a1,1,0,0,0,.23-.11l.06,0c.23-.12.74-.43.73-.43A33.58,33.58,0,0,0,155.34,51c0,.05,1.74-1.33,2.6-2.14-.11.09.19-.2.15-.15.57-.55,1.12-1.1,1.65-1.66a11.73,11.73,0,0,0,1.18-1.47l-.89,1c-.07.08-.21.21-.3.3a7.15,7.15,0,0,0,.85-1.07,19.36,19.36,0,0,0,2.19-3.31,7.28,7.28,0,0,0,.41-1.07,21.78,21.78,0,0,1-3.65,5.47c-.39.42-.8.84-1.21,1.26-.06,0-.12.12-.18.18l-.42.39c-.41.39-.83.78-1.27,1.16l-.31.27c-.88.74-1.8,1.46-2.77,2.13a35,35,0,0,1-10,4.72,22.12,22.12,0,0,1-9.23.93,5.6,5.6,0,0,1-2.68-1.19,3.05,3.05,0,0,1-1-2.11,5.83,5.83,0,0,1,0-.59,4.21,4.21,0,0,1,.09-.49,12,12,0,0,1,1.18-3s0,0,0-.05l.22-.39.23-.43a1.71,1.71,0,0,0,.11-.14,2.42,2.42,0,0,0,.21-.39s.06-.09.09-.15l.06-.08a29.61,29.61,0,0,1,2.12-3c.89-1,1.83-2,2.84-3l.5-.48c.26-.23.51-.47.78-.7l.21-.19.09-.08.26-.22.13-.11.22-.18a.15.15,0,0,0,.06,0s0,0,0,0l-.09.06,0,0-.67.5h0c-.1.07-.18.15-.27.22h0a1.79,1.79,0,0,1,.25-.22c.23-.19.47-.39.72-.58l.07-.06c.22-.16.43-.33.66-.49L141,40c.12-.09-1,.66-1.61,1.12l-.6.49-.23.18s-.09.09-.08.07a1.82,1.82,0,0,1,.42-.36c.42-.36.86-.71,1.3-1,0,0,.06-.07.1-.1l.35-.27c.33-.24.66-.49,1-.72l.2-.13c.52-.35,1-.69,1.57-1l0,0c.59-.36,1.19-.71,1.78-1.05l.26-.15.8-.46.32-.17h0l-.33.17A51.47,51.47,0,0,0,140.46,40l-.12.09c-.08.06-.17.11-.24.17-.34.24-.66.51-1,.76l-.08.06,0,0-.5.39a6.46,6.46,0,0,1-.85.7s0,0,0,0l.1-.09.06-.05.37-.34c.38-.33.8-.64,1.17-1l.1-.08c2.07-1.57,6.88-4.35,6.72-4.26l-.17.09-.06,0-.05,0-.06,0,.33-.19c.4-.22.81-.43,1.22-.63,1-.45,3.45-1.26,3.46-1.27a17.18,17.18,0,0,0-3,.89c-.06,0-.14,0-.11,0s0,0,0,0c.3-.12.61-.22.91-.33l1-.34.52-.15a20.72,20.72,0,0,1,2.42-.49H152a3.62,3.62,0,0,0,.45-.05c.08,0,.47,0,.54-.06a7.92,7.92,0,0,0-2.91.16,12.13,12.13,0,0,0-1.52.37,18.31,18.31,0,0,0-3.05,1.22c-.74.36-1.47.73-2.2,1.1-1,.54-2.05,1.09-3,1.68,0,0,0,0,0,0l.55-.33c.4-.24,1.09-.67,1.5-.9a7.18,7.18,0,0,0-1.47.78L139,39.21l-.64.45L136.5,41c-.18.14-1.21,1-2.39,2a8.22,8.22,0,0,0-.91.93c.21-.2,1.54-1.33,2-1.72.22-.19,1.06-.83,1.12-.87s0,0,0,0l-3,2.66-.11.1a21.61,21.61,0,0,0-4.9,6.44c-3,5.36.05,9,5.08,10.37a17.08,17.08,0,0,0,6.1.58A30.57,30.57,0,0,0,146,60.4c.24-.06,1.14-.29,1.37-.38,7.58-3,7.9-3.53,8.95-4.16.83-.5,1.63-1,2.39-1.57A34.08,34.08,0,0,0,162,51.7c.7-.61,1.37-1.25,2-1.9a28,28,0,0,0,3-3.67,22.57,22.57,0,0,0,1.49-2.5,14.4,14.4,0,0,0,1.2-3.37c0-.14.07-.27.11-.41A11.83,11.83,0,0,0,169.9,35.9Zm-34.49-2.43c-1.1.93-2.13,1.91-3.14,2.91h0c-.3.29-.6.58-.88.87-.43.44-.86.88-1.27,1.34l-.31.33c-.23.24-.46.49-.68.74l-.54.65-.09.1,0,0c-.67.8-1.37,1.64-2,2.46h0s2-2.35,2.82-3.24c.12-.13.11-.14.23-.27s-.08.12-.17.22c-.23.28-.47.56-.7.85q-1,1.23-2,2.49c-.7.94-1.36,1.89-2,2.85.21-.73.3-1.12.53-1.84A67.12,67.12,0,0,1,130.07,38c.47-.51,1-1,1.49-1.44l.13-.1,0,0a15.81,15.81,0,0,0-1.48,1.61l1.19-1.18c.45-.43.91-.85,1.37-1.27s1-.92,1.58-1.37l0,0,.87-.71C135.36,33.47,135.46,33.41,135.41,33.47Z" style="fill:#003976"></path><path d="M195.71,42.07a1.14,1.14,0,1,0,1.14,1.14A1.13,1.13,0,0,0,195.71,42.07Z" style="fill:#4d90cd"></path><path d="M225.34,44.35a1.14,1.14,0,1,0-1.14-1.14A1.14,1.14,0,0,0,225.34,44.35Z" style="fill:#4d90cd"></path><path d="M187.66,43.21a1.14,1.14,0,1,0-1.14,1.14A1.14,1.14,0,0,0,187.66,43.21Z" style="fill:#4d90cd"></path><path d="M184.85,43.21a1.14,1.14,0,1,0-1.14,1.14A1.15,1.15,0,0,0,184.85,43.21Z" style="fill:#4d90cd"></path><rect x="280.75" y="42.52" width="1.74" height="13.72" style="fill:#4d90cd"></rect><rect x="209.65" y="42.52" width="1.74" height="13.72" style="fill:#4d90cd"></rect><path d="M278.14,42.5H276.4V54.93h-3a5.08,5.08,0,0,1-.16-1.43v-2c0-2.94-1.67-5.17-4.27-5.17h-9.05a4.29,4.29,0,0,0-2.76,1V46.08h-1.53s0,8.42,0,8.86h-3.49V42.5h-1.74V55.36s0,0,0,.06v.79h27.83v-.79s0,0,0-.06Zm-6.49,11.58c0,.67-.13.82-.49.85H258.08c-.75,0-.93,0-1-.86V51.52c0-1.91,1-4,2.74-4h9.05c1.78,0,2.74,2,2.74,4Z" style="fill:#4d90cd"></path><path d="M248.53,42.5h-1.75V54.93h-4.59a7.05,7.05,0,0,0,1.3-4.21l0-.06c0-2.95-2.59-5-5.68-5.08A5.53,5.53,0,0,0,232,50.83a5.46,5.46,0,0,0,5.73,5.29,6.28,6.28,0,0,0,1.22-1L239,55a4.18,4.18,0,0,1-1.26.16c-2.42,0-3.74-2.12-3.77-4.33,0-2.39,1.28-4.48,3.91-4.35,2.3.1,3.58,2.11,3.61,4.23,0,5.09-5,7.78-8.27,7.78H235a9.58,9.58,0,0,0,6.07-2.3h7.49V42.5Z" style="fill:#4d90cd"></path><path d="M228.63,51.35v.49a4.79,4.79,0,0,1-5,5.15,5,5,0,0,1-5.17-5c0-.13,0-.24,0-.36,0-2.82,1.28-5.47,4-6.48v0l-.85.22a6.88,6.88,0,0,0-4.87,6.91c.35,4,3.8,6,7,6a6.53,6.53,0,0,0,6.4-4.93,10.84,10.84,0,0,0,.15-1.7s0-3.59,0-5.94h-1.74Z" style="fill:#4d90cd"></path><path d="M206.12,53.34v.09A3.8,3.8,0,0,1,202,57.2a4.16,4.16,0,0,1-3.22-1.05,5,5,0,0,0,9.06-2.66v-.07h0V42.5h-1.72Z" style="fill:#4d90cd"></path><path d="M204.57,54.72s-4.17-11.38-4.5-12.17h-1.32c.41.9,5,13.21,5,13.26C204.26,55.53,204.3,55.17,204.57,54.72Z" style="fill:#4d90cd"></path><path d="M194.81,45.64v8.28c0,1.72-.79,4.41-2.87,4.41l0,0c3.38,0,4.6-2.07,4.6-4.49V45.64Z" style="fill:#4d90cd"></path><path d="M189.84,45.64v8.28c0,1.72-.78,4.41-2.86,4.41v0c3.39,0,4.61-2.07,4.61-4.49V45.64Z" style="fill:#4d90cd"></path><path d="M178.58,49.46a3.52,3.52,0,0,0,2.68,3.48,4.2,4.2,0,0,0,2.86-.07l-.12,0a3.44,3.44,0,0,1-3.69-3.36c.08-1.63,1.59-2.58,3.26-2.58h1.55v4.89c0,3.78-3.15,5.15-5.48,5.15-2.77,0-6-1.61-6.21-5,0-.13,0-.24,0-.36,0-2.82,1.29-5.47,4-6.48v0l-.86.22a6.9,6.9,0,0,0-4.87,6.91c.36,4,4.11,6,8.08,6,2.6,0,6.12-1.48,6.87-4.93a10.56,10.56,0,0,0,.16-1.7V46.29a.13.13,0,0,1,0-.06v-.71h-3.69C180.75,45.51,178.58,46.61,178.58,49.46Z" style="fill:#4d90cd"></path><path d="M56,48.42c-1.92-.88-2.73-1.63-2.73-2.87a2.61,2.61,0,0,1,2.45-2.44c2,0,2.55.38,3.28,1.36l-.11-1.2a6.69,6.69,0,0,0-3.09-.82c-1.87,0-4.28,1.1-4.28,3.88,0,1.57,1,2.44,2.88,3.48s3.78,1.57,3.78,3.54A3.12,3.12,0,0,1,55,56.09a5.12,5.12,0,0,1-3.75-1.42l.1,1.22a8.68,8.68,0,0,0,3.94,1,4.33,4.33,0,0,0,4.56-4.31C59.89,49.72,57.91,49.32,56,48.42Z" style="fill:#4d90cd"></path><path d="M90.06,42.53a7.17,7.17,0,1,0-.33,14.32c3.7,0,7.54-2.33,7.63-7.12A7.15,7.15,0,0,0,90.06,42.53Zm-.13,13.65c-2.55,0-5.42-2.14-5.42-6.86,0-3.91,2.45-6.23,5.37-6.23s5.35,2.53,5.31,6.79C95.19,53.89,92.82,56.18,89.93,56.18Z" style="fill:#4d90cd"></path><path d="M7.87,49.2A3.43,3.43,0,0,0,10.3,46c0-2.75-2.93-3.24-4.32-3.24H2.87V56.67H6.51c4.33,0,5.07-2.25,5.07-3.89C11.58,49.47,7.87,49.2,7.87,49.2ZM4.63,43.76s.47,0,1,0c1.52,0,3,1,3,2.45C8.68,48.29,6.47,49,5.3,49a6.61,6.61,0,0,1-.67,0Zm.67,11.9a3,3,0,0,1-.67-.06V49.88l1.25,0c1.7,0,3.73.58,3.73,2.75C9.61,55.07,7,55.66,5.3,55.66Z" style="fill:#4d90cd"></path><path d="M15.68,55.35V43.67s0-.05,0-.08v-.84H14v13.9h7.86V55.36C17,55.36,16.09,55.37,15.68,55.35Z" style="fill:#4d90cd"></path><path d="M76.58,55.35V42.75H74.85v13.9h7.86V55.36C77.91,55.36,77,55.37,76.58,55.35Z" style="fill:#4d90cd"></path><path d="M38.09,51.06V49.47h3.82v-.71H38.09v-5h5v-1H36.37v13.9h7V55.36c-4,0-4.9,0-5.29,0Z" style="fill:#4d90cd"></path><path d="M61.61,56.67h.77c.77-1.75,1.18-2.75,1.67-3.86h5s1.53,3.78,1.53,3.83h2.17c-1.43-3.21-5.54-14.19-5.54-14.19S63.09,53.43,61.61,56.67Zm2.85-4.93c.65-1.53,2.12-5.48,2.12-5.48s2,5.39,2,5.48Z" style="fill:#4d90cd"></path><path d="M110.38,52s-10.19-9.33-10.2-9.64V56.27h1.19V46.62s10.18,9.34,10.2,9.65V42.36h-1.19Z" style="fill:#4d90cd"></path><path d="M32.2,52.07a3.33,3.33,0,0,1-3.59,3.61,3.24,3.24,0,0,1-3.43-3.45V42.76H23.41v9.42c0,3.6,2.46,4.67,4.85,4.67C31,56.85,33.1,55.5,33.1,52l0-9.28h-.94Z" style="fill:#4d90cd"></path></svg>